<svg width="128" height="128" viewBox="0 0 64 64" fill="none" xmlns="http://www.w3.org/2000/svg" role="img" aria-label="SiteBoutique">
  <defs>
    <clipPath id="awning">
      <path d="M13 20 L51 20 L51 29 Q46.25 36.5 41.5 29 Q36.75 36.5 32 29 Q27.25 36.5 22.5 29 Q17.75 36.5 13 29 Z"/>
    </clipPath>
  </defs>

  <!-- tile -->
  <rect x="2" y="2" width="60" height="60" rx="17" fill="#1f1f1f"/>

  <!-- awning body -->
  <path d="M13 20 L51 20 L51 29 Q46.25 36.5 41.5 29 Q36.75 36.5 32 29 Q27.25 36.5 22.5 29 Q17.75 36.5 13 29 Z" fill="#c8a468"/>

  <!-- awning stripes -->
  <g clip-path="url(#awning)">
    <rect x="18.5" y="19" width="4.2" height="20" fill="#a67c3a"/>
    <rect x="29.9" y="19" width="4.2" height="20" fill="#a67c3a"/>
    <rect x="41.3" y="19" width="4.2" height="20" fill="#a67c3a"/>
  </g>

  <!-- valance top edge -->
  <rect x="13" y="18.5" width="38" height="2.5" rx="1.25" fill="#e8d7b8"/>

  <!-- shop doorway -->
  <rect x="24" y="35" width="16" height="19" rx="3" stroke="#c8a468" stroke-width="2.4" fill="none"/>
  <line x1="24.6" y1="41" x2="39.4" y2="41" stroke="#c8a468" stroke-width="1.6"/>
  <circle cx="36" cy="47.5" r="1.4" fill="#c8a468"/>
</svg>
